<?xml version="1.0" encoding="UTF-8" standalone="no"?>
<svg
   xmlns:dc="http://purl.org/dc/elements/1.1/"
   xmlns:cc="http://creativecommons.org/ns#"
   xmlns:rdf="http://www.w3.org/1999/02/22-rdf-syntax-ns#"
   xmlns:svg="http://www.w3.org/2000/svg"
   xmlns="http://www.w3.org/2000/svg"
   xmlns:sodipodi="http://sodipodi.sourceforge.net/DTD/sodipodi-0.dtd"
   xmlns:inkscape="http://www.inkscape.org/namespaces/inkscape"
   inkscape:version="1.0beta1 (32d4812, 2019-09-19)"
   sodipodi:docname="geosnap_long.svg"
   id="svg24"
   version="1.1"
   viewBox="0 0 1280 640"
   height="640"
   width="1280">
  <metadata
     id="metadata30">
    <rdf:RDF>
      <cc:Work
         rdf:about="">
        <dc:format>image/svg+xml</dc:format>
        <dc:type
           rdf:resource="http://purl.org/dc/dcmitype/StillImage" />
        <dc:title></dc:title>
      </cc:Work>
    </rdf:RDF>
  </metadata>
  <defs
     id="defs28">
    <rect
       id="rect62"
       height="241.15942"
       width="514.12008"
       y="299.4617"
       x="685.05176" />
    <rect
       id="rect56"
       height="314.03727"
       width="337.8882"
       y="196.10766"
       x="572.42236" />
    <rect
       id="rect50"
       height="154.28571"
       width="314.28571"
       y="214.28571"
       x="628.57143" />
  </defs>
  <sodipodi:namedview
     inkscape:document-rotation="0"
     inkscape:current-layer="svg24"
     inkscape:window-maximized="0"
     inkscape:window-y="23"
     inkscape:window-x="0"
     inkscape:cy="320"
     inkscape:cx="640"
     inkscape:zoom="0.7546875"
     showgrid="false"
     id="namedview26"
     inkscape:window-height="907"
     inkscape:window-width="1600"
     inkscape:pageshadow="2"
     inkscape:pageopacity="0"
     guidetolerance="10"
     gridtolerance="10"
     objecttolerance="10"
     borderopacity="1"
     bordercolor="#666666"
     pagecolor="#ffffff" />
  <g
     transform="matrix(0.9092394,0,0,0.90583078,-213.66564,105.4953)"
     id="g22">
    <g
       id="g20"
       style="fill:#000000"
       transform="matrix(0.69,0,0,0.69,15.5,15.5)">
      <svg
         height="100%"
         width="100%"
         id="svg18"
         version="1.1"
         y="0px"
         x="0px"
         viewBox="0 0 909.83 1019.34"
         fill="#000000">
        <title
           id="title2">1Asset 5</title>
        <g
           id="g16"
           data-name="Layer 2">
          <g
             id="g14"
             data-name="Layer">
            <path
               inkscape:connector-curvature="0"
               id="path4"
               d="m 886.9,557.45 a 78.28,78.28 0 0 0 -63.4,-22.52 80.17,80.17 0 0 0 -88,-97.47 82.63,82.63 0 0 0 1.84,-17.46 82,82 0 0 0 -73.86,-81.55 l 139,-139 A 81.953684,81.953684 0 1 0 686.63,83.5 L 412.05,358.08 c -18.64,18.64 -41.11,31.55 -65,37.35 -17.91,4.35 -36,4.4 -50.55,0.28 -14.38,-22.37 -27.88,-40.68 -30.8,-44.6 C 236.09,310.7 208.81,269.57 177,220.23 144.29,169.57 102.94,147.79 63.54,160.5 53,163.89 43,170.07 32.92,179.38 c -17.86,16.53 -34.2,35.08 -32.84,58.77 1,18.15 11.48,34.43 27.29,59.07 9,13.95 20.09,31.32 31.94,53 7.11,13.05 12.46,26.58 18.13,40.91 2.24,5.68 4.57,11.55 7,17.43 7.36,17.61 16.71,40.94 23.81,65.21 11.72,40 5.36,78.49 -1.36,119.2 -4.85,29.33 -9.86,59.66 -8,91.42 2.37,40.18 13.66,80.92 33.55,121.08 18.75,37.87 44.15,73 75.49,104.3 57.84,57.84 129,95.64 200.5,106.42 a 269.83,269.83 0 0 0 40.28,3.1 225.74,225.74 0 0 0 59.29,-7.66 c 32.34,-8.77 60.2,-24.68 82.8,-47.28 L 820.22,735 v 0 l 66.67,-66.67 A 78.5,78.5 0 0 0 886.9,557.45 Z M 780.82,481.53 a 50.32,50.32 0 0 1 0,71.1 l -4.79,4.8 v 0 l -66.67,66.67 v 0 l -4.81,4.81 a 50.28,50.28 0 1 1 -71.11,-71.1 l 38.16,-38.16 38.15,-38.15 a 50.33,50.33 0 0 1 71.07,0.03 z M 655.39,368 a 51.94,51.94 0 0 1 36.73,88.67 l -41.77,41.77 -38.15,38.18 v 0 l -3.6,3.61 a 51.944064,51.944064 0 0 1 -73.46,-73.46 l 35.35,-35.36 v 0 l 48.18,-48.18 A 51.61,51.61 0 0 1 655.39,368 Z m -85.76,575.19 c -37.56,37.55 -93.2,53 -156.68,43.39 -65.17,-9.84 -130.43,-44.63 -183.77,-98 q -8,-8 -15.37,-16.27 a 170.76,170.76 0 0 0 46.47,6.6 151.64,151.64 0 0 0 25.42,-2.11 c 38.61,-6.55 69.21,-28.22 88.49,-62.66 A 12.48,12.48 0 1 0 352.4,802 c -15.68,28 -39.53,44.92 -70.88,50.24 -36.89,6.26 -75.64,-5.26 -99.85,-21.42 a 350.45,350.45 0 0 1 -22.31,-38.59 c -18.09,-36.54 -28.35,-73.4 -30.49,-109.54 -1.68,-28.41 2.85,-55.78 7.63,-84.76 7,-42.24 14.2,-85.91 0.57,-132.51 -7.52,-25.69 -17.27,-50 -24.93,-68.36 -2.34,-5.6 -4.61,-11.34 -6.8,-16.89 -5.75,-14.54 -11.7,-29.57 -19.69,-44.24 -12.36,-22.66 -23.82,-40.53 -33,-54.89 -12.77,-19.91 -22,-34.3 -22.59,-44.58 -0.36,-6.35 2.12,-15.47 23.26,-35 6.79,-6.29 13.15,-10.33 19.43,-12.35 36.16,-11.67 67.32,29.3 79,47.45 32.15,49.81 59.73,91.39 89.81,132.41 v 0 l 0.07,0.09 c 15.41,20.7 56.86,80.6 63.42,108.77 a 15.000403,15.000403 0 1 0 29.22,-6.8 c -2.78,-11.94 -9.63,-26.93 -18,-42.24 a 144.06,144.06 0 0 0 37.87,-4.15 c 29.22,-7.09 56.58,-22.75 79.12,-45.29 L 707.84,104.72 a 51.944064,51.944064 0 0 1 73.46,73.46 L 597.45,362 513.91,445.53 a 81.91,81.91 0 0 0 75.44,138 80.23,80.23 0 0 0 97.47,88.1 78.28,78.28 0 0 0 22.52,63.37 v 0 a 78,78 0 0 0 46.11,22.36 z m 296.06,-296.06 -31.32,31.31 v 0 L 799,713.81 a 48.47,48.47 0 0 1 -68.46,0 v 0 a 48.47,48.47 0 0 1 0,-68.46 l 66.71,-66.71 a 48.42,48.42 0 0 1 68.44,68.5 z" />
            <path
               inkscape:connector-curvature="0"
               id="path6"
               d="M 273,168.1 A 15,15 0 1 0 294.27,147 l -75,-75.78 a 15.001454,15.001454 0 0 0 -21.32,21.11 z" />
            <path
               inkscape:connector-curvature="0"
               id="path8"
               d="m 330.86,122.33 a 15,15 0 0 0 14.62,11.67 15.31,15.31 0 0 0 3.33,-0.37 15,15 0 0 0 11.31,-17.95 l -23.58,-104 a 15,15 0 1 0 -29.25,6.63 z" />
            <path
               inkscape:connector-curvature="0"
               id="path10"
               d="M 413.46,133.22 A 15,15 0 0 0 432.55,124 l 35,-100.73 a 15.003126,15.003126 0 0 0 -28.34,-9.86 l -35,100.73 a 15,15 0 0 0 9.25,19.08 z" />
            <path
               inkscape:connector-curvature="0"
               id="path12"
               d="m 468.54,167.07 a 15,15 0 0 0 21.09,2.26 l 83,-66.94 A 15.007566,15.007566 0 1 0 553.82,79 l -83.02,67 a 15,15 0 0 0 -2.26,21.07 z" />
          </g>
        </g>
      </svg>
    </g>
  </g>
  <text
     id="text842"
     y="204.46732"
     x="-154.67313"
     style="font-style:normal;font-variant:normal;font-weight:normal;font-stretch:normal;font-size:40px;line-height:1.25;font-family:'Font Awesome 5 Free';-inkscape-font-specification:'Font Awesome 5 Free, Normal';font-variant-ligatures:normal;font-variant-caps:normal;font-variant-numeric:normal;font-feature-settings:normal;text-align:start;letter-spacing:0px;word-spacing:0px;writing-mode:lr-tb;text-anchor:start;fill:#000000;fill-opacity:1;stroke:none"
     xml:space="preserve" />
  <text
     id="text848"
     y="168.45036"
     x="-152.13075"
     style="font-style:normal;font-variant:normal;font-weight:normal;font-stretch:normal;font-size:40px;line-height:1.25;font-family:'Font Awesome 5 Free';-inkscape-font-specification:'Font Awesome 5 Free, Normal';font-variant-ligatures:normal;font-variant-caps:normal;font-variant-numeric:normal;font-feature-settings:normal;text-align:start;letter-spacing:0px;word-spacing:0px;writing-mode:lr-tb;text-anchor:start;fill:#000000;fill-opacity:1;stroke:none"
     xml:space="preserve" />
  <path
     style="fill:#000000;stroke-width:0.269816"
     inkscape:connector-curvature="0"
     d="m 188.06973,349.00787 c -38.11791,0 -69.01686,29.04507 -69.01686,64.87596 0,35.8309 30.89895,64.87598 69.01686,64.87598 38.11788,0 69.01683,-29.04508 69.01683,-64.87598 0,-35.83089 -30.89895,-64.87596 -69.01683,-64.87596 z m 22.90078,93.54697 c -1.08534,1.01498 -2.22357,2.07967 -3.14751,2.95082 -0.83212,0.78474 -1.41929,1.75268 -1.71707,2.80169 -0.42027,1.48064 -0.75981,2.97696 -1.32748,4.41313 l -4.8395,12.25581 c -3.82932,0.78475 -7.79222,1.22688 -11.86922,1.22688 v -7.16251 c 0.47032,-3.30135 -2.12618,-9.48549 -6.2978,-13.40683 -1.66975,-1.56958 -2.6076,-3.69898 -2.6076,-5.91993 v -8.37371 c 0,-3.04499 -1.74491,-5.84407 -4.58072,-7.31686 -3.99909,-2.0797 -9.68741,-4.98604 -13.58352,-6.83029 -3.19483,-1.51203 -6.1503,-3.43738 -8.80801,-5.68972 l -0.22272,-0.18837 a 31.945894,30.029205 0 0 1 -5.02598,-5.42549 c -2.6104,-3.60219 -6.86272,-9.52736 -9.62619,-13.37806 5.69669,-11.90265 15.96293,-21.46139 28.71992,-26.65409 l 6.68183,3.14177 c 2.96105,1.39172 6.4453,-0.63046 6.4453,-3.74343 v -2.95604 c 2.22356,-0.33743 4.4861,-0.55194 6.78757,-0.63309 l 7.87573,7.4032 c 1.73934,1.63498 1.73934,4.28495 0,5.91991 l -1.30521,1.22428 -2.87755,2.70493 c -0.86828,0.81619 -0.86828,2.14246 0,2.95865 l 1.30519,1.22688 c 0.86828,0.81619 0.86828,2.14247 0,2.95864 l -2.22635,2.09278 a 2.2285762,2.0948662 0 0 1 -1.57513,0.61218 h -2.50185 c -0.57891,0 -1.13545,0.21188 -1.5529,0.59383 l -2.76066,2.52439 a 2.2285762,2.0948662 0 0 0 -0.43969,2.43547 l 4.33859,8.1592 c 0.74026,1.39169 -0.33681,3.02928 -1.9898,3.02928 h -1.56956 c -0.53721,0 -1.05473,-0.18307 -1.45826,-0.51273 l -2.58258,-2.10842 a 4.4574308,4.1899942 0 0 0 -4.3275,-0.81093 l -8.67441,2.71798 a 3.3256101,3.1260802 0 0 0 -2.27366,2.96651 c 0,1.18504 0.71247,2.26542 1.83951,2.79646 l 3.08351,1.44925 c 2.61874,1.23212 5.50743,1.87304 8.43508,1.87304 2.92763,0 6.28665,7.13898 8.90539,8.37109 h 18.5761 c 2.36273,0 4.62525,0.88158 6.2978,2.45118 l 3.80983,3.58122 a 8.4887941,7.9794837 0 0 1 2.48517,5.64266 12.950679,12.173665 0 0 1 -3.81818,8.62746 z m 24.13086,-23.89686 c -1.61134,-0.37925 -3.0167,-1.30798 -3.93786,-2.60812 l -5.00373,-7.05526 a 6.6707004,6.2704724 0 0 1 0,-6.9637 l 5.45178,-7.68571 c 0.64561,-0.90775 1.53061,-1.64546 2.57142,-2.13202 l 3.61226,-1.69776 c 3.76253,7.04218 5.93323,14.96332 5.93323,23.36842 0,2.26804 -0.20598,4.48901 -0.50645,6.68118 z"
     id="path971" />
  <text
     style="font-style:normal;font-weight:normal;font-size:40px;line-height:1.25;font-family:sans-serif;shape-inside:url(#rect50);fill:#000000;fill-opacity:1;stroke:none;"
     id="text48"
     xml:space="preserve" />
  <text
     style="font-style:normal;font-weight:normal;font-size:40px;line-height:1.25;font-family:sans-serif;shape-inside:url(#rect56);fill:#000000;fill-opacity:1;stroke:none"
     id="text54"
     xml:space="preserve" />
  <text
     transform="matrix(2.3229623,0,0,2.9390439,-1179.814,-717.72838)"
     style="font-style:normal;font-variant:normal;font-weight:bold;font-stretch:normal;font-size:96.9546px;line-height:1.25;font-family:'Victor Mono';-inkscape-font-specification:'Victor Mono Bold';font-variant-ligatures:normal;font-variant-caps:normal;font-variant-numeric:normal;font-variant-east-asian:normal;shape-inside:url(#rect62);fill:#000000;fill-opacity:1;stroke:none"
     id="text60"
     xml:space="preserve"><tspan
       x="685.05078"
       y="390.5803"
       sodipodi:role="line"><tspan
         style="font-style:normal;font-variant:normal;font-weight:bold;font-stretch:normal;font-size:96.9546px;font-family:'Victor Mono';-inkscape-font-specification:'Victor Mono Bold';font-variant-ligatures:normal;font-variant-caps:normal;font-variant-numeric:normal;font-variant-east-asian:normal">geosnap</tspan></tspan></text>
</svg>
