<?xml version="1.0" encoding="UTF-8" standalone="no"?>
<svg
   xmlns:dc="http://purl.org/dc/elements/1.1/"
   xmlns:cc="http://creativecommons.org/ns#"
   xmlns:rdf="http://www.w3.org/1999/02/22-rdf-syntax-ns#"
   xmlns:svg="http://www.w3.org/2000/svg"
   xmlns="http://www.w3.org/2000/svg"
   xmlns:sodipodi="http://sodipodi.sourceforge.net/DTD/sodipodi-0.dtd"
   xmlns:inkscape="http://www.inkscape.org/namespaces/inkscape"
   width="100"
   height="100"
   viewBox="0 0 100 100"
   version="1.1"
   id="svg24"
   sodipodi:docname="geosnap.svg"
   inkscape:version="0.92.2 5c3e80d, 2017-08-06">
  <metadata
     id="metadata30">
    <rdf:RDF>
      <cc:Work
         rdf:about="">
        <dc:format>image/svg+xml</dc:format>
        <dc:type
           rdf:resource="http://purl.org/dc/dcmitype/StillImage" />
        <dc:title></dc:title>
      </cc:Work>
    </rdf:RDF>
  </metadata>
  <defs
     id="defs28" />
  <sodipodi:namedview
     pagecolor="#ffffff"
     bordercolor="#666666"
     borderopacity="1"
     objecttolerance="10"
     gridtolerance="10"
     guidetolerance="10"
     inkscape:pageopacity="0"
     inkscape:pageshadow="2"
     inkscape:window-width="1554"
     inkscape:window-height="959"
     id="namedview26"
     showgrid="false"
     inkscape:zoom="7.46"
     inkscape:cx="50"
     inkscape:cy="50"
     inkscape:window-x="-4"
     inkscape:window-y="0"
     inkscape:window-maximized="0"
     inkscape:current-layer="svg24" />
  <g
     id="g22">
    <g
       transform="translate(50 50) scale(0.69 0.69) rotate(0) translate(-50 -50)"
       style="fill:#000000"
       id="g20">
      <svg
         fill="#000000"
         viewBox="0 0 909.83 1019.34"
         x="0px"
         y="0px"
         version="1.1"
         id="svg18">
        <title
           id="title2">1Asset 5</title>
        <g
           data-name="Layer 2"
           id="g16">
          <g
             data-name="Layer"
             id="g14">
            <path
               d="M886.9,557.45a78.28,78.28,0,0,0-63.4-22.52,80.17,80.17,0,0,0-88-97.47A82.63,82.63,0,0,0,737.34,420a82,82,0,0,0-73.86-81.55l139-139A81.94,81.94,0,1,0,686.63,83.5L412.05,358.08c-18.64,18.64-41.11,31.55-65,37.35-17.91,4.35-36,4.4-50.55.28-14.38-22.37-27.88-40.68-30.8-44.6C236.09,310.7,208.81,269.57,177,220.23c-32.71-50.66-74.06-72.44-113.46-59.73C53,163.89,43,170.07,32.92,179.38,15.06,195.91-1.28,214.46.08,238.15c1,18.15,11.48,34.43,27.29,59.07,9,13.95,20.09,31.32,31.94,53,7.11,13.05,12.46,26.58,18.13,40.91,2.24,5.68,4.57,11.55,7,17.43,7.36,17.61,16.71,40.94,23.81,65.21,11.72,40,5.36,78.49-1.36,119.2-4.85,29.33-9.86,59.66-8,91.42,2.37,40.18,13.66,80.92,33.55,121.08,18.75,37.87,44.15,73,75.49,104.3,57.84,57.84,129,95.64,200.5,106.42a269.83,269.83,0,0,0,40.28,3.1,225.74,225.74,0,0,0,59.29-7.66c32.34-8.77,60.2-24.68,82.8-47.28L820.22,735h0l66.67-66.67A78.5,78.5,0,0,0,886.9,557.45ZM780.82,481.53a50.32,50.32,0,0,1,0,71.1l-4.79,4.8,0,0-66.67,66.67h0l-4.81,4.81a50.28,50.28,0,1,1-71.11-71.1l38.16-38.16,38.15-38.15A50.33,50.33,0,0,1,780.82,481.53ZM655.39,368a51.94,51.94,0,0,1,36.73,88.67l-41.77,41.77L612.2,536.62h0l-3.6,3.61a51.94,51.94,0,0,1-73.46-73.46l35.35-35.36h0l48.18-48.18A51.61,51.61,0,0,1,655.39,368ZM569.63,943.19c-37.56,37.55-93.2,53-156.68,43.39-65.17-9.84-130.43-44.63-183.77-98q-8-8-15.37-16.27a170.76,170.76,0,0,0,46.47,6.6,151.64,151.64,0,0,0,25.42-2.11c38.61-6.55,69.21-28.22,88.49-62.66A12.48,12.48,0,1,0,352.4,802c-15.68,28-39.53,44.92-70.88,50.24-36.89,6.26-75.64-5.26-99.85-21.42a350.45,350.45,0,0,1-22.31-38.59c-18.09-36.54-28.35-73.4-30.49-109.54-1.68-28.41,2.85-55.78,7.63-84.76,7-42.24,14.2-85.91.57-132.51-7.52-25.69-17.27-50-24.93-68.36-2.34-5.6-4.61-11.34-6.8-16.89-5.75-14.54-11.7-29.57-19.69-44.24-12.36-22.66-23.82-40.53-33-54.89-12.77-19.91-22-34.3-22.59-44.58-.36-6.35,2.12-15.47,23.26-35,6.79-6.29,13.15-10.33,19.43-12.35,36.16-11.67,67.32,29.3,79,47.45,32.15,49.81,59.73,91.39,89.81,132.41h0l.07.09c15.41,20.7,56.86,80.6,63.42,108.77a15,15,0,1,0,29.22-6.8c-2.78-11.94-9.63-26.93-18-42.24a144.06,144.06,0,0,0,37.87-4.15c29.22-7.09,56.58-22.75,79.12-45.29L707.84,104.72a51.94,51.94,0,0,1,73.46,73.46L597.45,362l-83.54,83.53a81.91,81.91,0,0,0,75.44,138,80.23,80.23,0,0,0,97.47,88.1A78.28,78.28,0,0,0,709.34,735h0a78,78,0,0,0,46.11,22.36ZM865.69,647.13l-31.32,31.31h0L799,713.81a48.47,48.47,0,0,1-68.46,0h0a48.47,48.47,0,0,1,0-68.46l66.71-66.71a48.42,48.42,0,0,1,68.44,68.5Z"
               id="path4" />
            <path
               d="M273,168.1A15,15,0,1,0,294.27,147l-75-75.78a15,15,0,0,0-21.32,21.11Z"
               id="path6" />
            <path
               d="M330.86,122.33A15,15,0,0,0,345.48,134a15.31,15.31,0,0,0,3.33-.37,15,15,0,0,0,11.31-17.95l-23.58-104a15,15,0,1,0-29.25,6.63Z"
               id="path8" />
            <path
               d="M413.46,133.22A15,15,0,0,0,432.55,124l35-100.73a15,15,0,0,0-28.34-9.86l-35,100.73A15,15,0,0,0,413.46,133.22Z"
               id="path10" />
            <path
               d="M468.54,167.07a15,15,0,0,0,21.09,2.26l83-66.94A15,15,0,1,0,553.82,79L470.8,146A15,15,0,0,0,468.54,167.07Z"
               id="path12" />
          </g>
        </g>
      </svg>
    </g>
  </g>
  <text
     xml:space="preserve"
     style="font-style:normal;font-weight:normal;font-size:40px;line-height:1.25;font-family:'Font Awesome 5 Free';letter-spacing:0px;word-spacing:0px;fill:#000000;fill-opacity:1;stroke:none;-inkscape-font-specification:'Font Awesome 5 Free, Normal';font-stretch:normal;font-variant:normal;text-anchor:start;text-align:start;writing-mode:lr;font-variant-ligatures:normal;font-variant-caps:normal;font-variant-numeric:normal;font-feature-settings:normal;"
     x="33.898304"
     y="121.61017"
     id="text842"><tspan
       sodipodi:role="line"
       id="tspan844"></tspan></text>
  <text
     xml:space="preserve"
     style="font-style:normal;font-weight:normal;font-size:40px;line-height:1.25;font-family:'Font Awesome 5 Free';letter-spacing:0px;word-spacing:0px;fill:#000000;fill-opacity:1;stroke:none;-inkscape-font-specification:'Font Awesome 5 Free, Normal';font-stretch:normal;font-variant:normal;text-anchor:start;text-align:start;writing-mode:lr;font-variant-ligatures:normal;font-variant-caps:normal;font-variant-numeric:normal;font-feature-settings:normal;"
     x="36.440678"
     y="85.593224"
     id="text848"><tspan
       sodipodi:role="line"
       id="tspan850"></tspan></text>
  <path
     id="path971"
     d="m 47.299548,54.322081 c -6.417937,0 -11.620416,5.202478 -11.620416,11.620414 0,6.417936 5.202479,11.620414 11.620416,11.620414 6.417935,0 11.620411,-5.202478 11.620411,-11.620414 0,-6.417936 -5.202476,-11.620414 -11.620411,-11.620414 z m 3.855821,16.755887 c -0.18274,0.181803 -0.374385,0.372508 -0.529948,0.528543 -0.140105,0.140563 -0.238968,0.313937 -0.289105,0.501833 -0.07076,0.265207 -0.127929,0.533226 -0.223507,0.790469 l -0.814832,2.195227 c -0.644746,0.140564 -1.311982,0.219757 -1.998429,0.219757 V 74.030865 C 47.378738,73.439536 46.941562,72.33185 46.239184,71.629469 45.958045,71.34833 45.80014,70.96692 45.80014,70.569106 v -1.499875 c 0,-0.545411 -0.293791,-1.046776 -0.77126,-1.310576 -0.673329,-0.372512 -1.631074,-0.893087 -2.287066,-1.223425 -0.537914,-0.270831 -1.03553,-0.615695 -1.48301,-1.019129 l -0.0375,-0.03374 a 5.3787523,5.3787523 0 0 1 -0.846227,-0.971799 c -0.439515,-0.645216 -1.155483,-1.706516 -1.620769,-2.396242 0.959156,-2.131972 2.687691,-3.844108 4.835593,-4.774209 l 1.125025,0.562744 c 0.498553,0.249281 1.085199,-0.112926 1.085199,-0.670514 v -0.529479 c 0.374383,-0.06044 0.755327,-0.09886 1.142829,-0.113395 l 1.326041,1.326041 c 0.292853,0.292852 0.292853,0.767509 0,1.06036 l -0.219759,0.219289 -0.484496,0.484498 c -0.146192,0.146193 -0.146192,0.383753 0,0.529946 l 0.219756,0.219757 c 0.146194,0.146193 0.146194,0.383755 0,0.529945 l -0.374852,0.374853 a 0.37522692,0.37522692 0 0 1 -0.265206,0.109652 h -0.421239 c -0.09747,0 -0.191175,0.03795 -0.261462,0.106362 l -0.464815,0.452165 a 0.37522692,0.37522692 0 0 0 -0.07403,0.436234 l 0.730492,1.461455 c 0.124639,0.249276 -0.05671,0.542597 -0.335024,0.542597 h -0.264269 c -0.09045,0 -0.177586,-0.03279 -0.245528,-0.09184 l -0.43483,-0.377654 a 0.75050072,0.75050071 0 0 0 -0.728625,-0.145253 l -1.460516,0.48684 a 0.55993528,0.55993527 0 0 0 -0.382819,0.53135 c 0,0.212262 0.119959,0.405779 0.309722,0.500897 l 0.519171,0.259586 c 0.440919,0.220692 0.927289,0.335493 1.420219,0.335493 0.49293,0 1.05849,1.278715 1.499409,1.499408 h 3.127672 c 0.397813,0 0.778755,0.157906 1.060363,0.439045 l 0.641465,0.641465 a 1.4292641,1.4292641 0 0 1 0.418429,1.010696 2.1805148,2.1805147 0 0 1 -0.642871,1.545327 z m 4.062928,-4.280342 c -0.2713,-0.06793 -0.507925,-0.234281 -0.66302,-0.46716 l -0.842481,-1.263719 a 1.1231505,1.1231505 0 0 1 0,-1.247321 l 0.91792,-1.376643 c 0.108702,-0.162592 0.25771,-0.294729 0.432953,-0.38188 l 0.608198,-0.304101 c 0.6335,1.261379 0.998981,2.680192 0.998981,4.185693 0,0.406245 -0.03468,0.804058 -0.08527,1.196714 z"
     inkscape:connector-curvature="0"
     style="fill:#000000;stroke-width:0.04685651" />
</svg>
